<?xml version="1.0" encoding="UTF-8" standalone="no"?>
<!-- Created with Fritzing (http://www.fritzing.org/) -->

<svg
   xmlns:dc="http://purl.org/dc/elements/1.1/"
   xmlns:cc="http://creativecommons.org/ns#"
   xmlns:rdf="http://www.w3.org/1999/02/22-rdf-syntax-ns#"
   xmlns:svg="http://www.w3.org/2000/svg"
   xmlns="http://www.w3.org/2000/svg"
   xmlns:sodipodi="http://sodipodi.sourceforge.net/DTD/sodipodi-0.dtd"
   xmlns:inkscape="http://www.inkscape.org/namespaces/inkscape"
   height="1in"
   viewBox="0 0 286.299 72"
   x="0in"
   y="0in"
   width="3.97638in"
   version="1.2"
   id="svg4136"
   inkscape:version="0.91 r13725"
   sodipodi:docname="ChickenFan_etch_copper_bottom.svg">
  <metadata
     id="metadata4358">
    <rdf:RDF>
      <cc:Work
         rdf:about="">
        <dc:format>image/svg+xml</dc:format>
        <dc:type
           rdf:resource="http://purl.org/dc/dcmitype/StillImage" />
        <dc:title></dc:title>
      </cc:Work>
    </rdf:RDF>
  </metadata>
  <defs
     id="defs4356" />
  <sodipodi:namedview
     pagecolor="#ffffff"
     bordercolor="#666666"
     borderopacity="1"
     objecttolerance="10"
     gridtolerance="10"
     guidetolerance="10"
     inkscape:pageopacity="0"
     inkscape:pageshadow="2"
     inkscape:window-width="2560"
     inkscape:window-height="1377"
     id="namedview4354"
     showgrid="false"
     inkscape:zoom="5.5159046"
     inkscape:cx="178.9371"
     inkscape:cy="45"
     inkscape:window-x="-8"
     inkscape:window-y="-8"
     inkscape:window-maximized="1"
     inkscape:current-layer="svg4136" />
  <path
     style="color:#000000;font-style:normal;font-variant:normal;font-weight:normal;font-stretch:normal;font-size:medium;line-height:normal;font-family:sans-serif;text-indent:0;text-align:start;text-decoration:none;text-decoration-line:none;text-decoration-style:solid;text-decoration-color:#000000;letter-spacing:normal;word-spacing:normal;text-transform:none;direction:ltr;block-progression:tb;writing-mode:lr-tb;baseline-shift:baseline;text-anchor:start;white-space:normal;clip-rule:nonzero;display:inline;overflow:visible;visibility:visible;opacity:1;isolation:auto;mix-blend-mode:normal;color-interpolation:sRGB;color-interpolation-filters:linearRGB;solid-color:#000000;solid-opacity:1;fill:#000000;fill-opacity:1;fill-rule:nonzero;stroke:none;stroke-width:0.5;stroke-linecap:butt;stroke-linejoin:miter;stroke-miterlimit:4;stroke-dasharray:none;stroke-dashoffset:0;stroke-opacity:1;color-rendering:auto;image-rendering:auto;shape-rendering:auto;text-rendering:auto;enable-background:accumulate"
     d="M 0.046875 0.046875 L 0.046875 0.359375 L 0.046875 89.953125 L 357.82812 89.953125 L 357.82812 0.046875 L 0.046875 0.046875 z M 0.671875 0.671875 L 357.20312 0.671875 L 357.20312 89.328125 L 0.671875 89.328125 L 0.671875 0.671875 z M 181.00195 9.625 C 179.14865 9.6249999 177.625 11.146699 177.625 13 C 177.625 14.8533 179.14865 16.375 181.00195 16.375 C 182.29963 16.375 183.42069 15.620378 183.98438 14.537109 A 1.440144 1.440144 0 0 0 184.0293 14.539062 L 267.83984 17.236328 L 267.83984 26.001953 L 263.06641 26.285156 C 262.85901 26.237054 262.64501 26.207031 262.42383 26.207031 C 262.09153 26.207031 261.77831 26.275448 261.48047 26.380859 L 210.98438 29.378906 A 1.4405254 1.4405254 0 0 0 210.93945 29.384766 C 210.36247 28.343868 209.26575 27.625 208 27.625 C 206.1467 27.625 204.625 29.1467 204.625 31 C 204.625 32.853301 206.1467 34.375 208 34.375 C 209.40938 34.375 210.62283 33.494195 211.125 32.257812 A 1.4405254 1.4405254 0 0 0 211.1543 32.255859 L 259.57617 29.378906 C 259.72631 30.822494 260.94309 31.96875 262.42383 31.96875 C 263.31605 31.96875 264.1086 31.545359 264.63867 30.900391 A 1.440144 1.440144 0 0 0 264.88867 30.960938 L 267.83984 31.457031 L 267.83984 41.533203 L 256.62305 75.181641 L 248.85938 77.769531 L 159.79297 80.640625 L 129.35352 80.640625 L 128.99219 78.75 A 1.440144 1.440144 0 0 0 128.98438 78.712891 C 129.82247 78.09692 130.37695 77.111285 130.37695 76 C 130.37695 74.1467 128.8533 72.625 127 72.625 C 125.1467 72.625 123.625 74.1467 123.625 76 C 123.625 77.560589 124.70908 78.874365 126.15625 79.253906 A 1.440144 1.440144 0 0 0 126.16211 79.289062 L 126.74609 82.351562 A 1.4404294 1.4404294 0 0 0 126.77539 82.470703 A 1.4405199 1.4405199 0 0 0 126.78711 82.511719 A 1.4404294 1.4404294 0 0 0 126.81836 82.601562 A 1.4405199 1.4405199 0 0 0 126.83398 82.638672 A 1.4404294 1.4404294 0 0 0 126.875 82.728516 A 1.4405199 1.4405199 0 0 0 126.90234 82.78125 A 1.4404294 1.4404294 0 0 0 126.94922 82.857422 A 1.4405199 1.4405199 0 0 0 126.9707 82.890625 A 1.4404294 1.4404294 0 0 0 127.0332 82.974609 A 1.4405199 1.4405199 0 0 0 127.06641 83.015625 A 1.4404294 1.4404294 0 0 0 127.12109 83.076172 A 1.4405199 1.4405199 0 0 0 127.15625 83.113281 A 1.4404294 1.4404294 0 0 0 127.25 83.195312 A 1.4405199 1.4405199 0 0 0 127.25586 83.201172 A 1.4404294 1.4404294 0 0 0 127.36523 83.279297 A 1.4405199 1.4405199 0 0 0 127.37305 83.285156 A 1.4404294 1.4404294 0 0 0 127.47852 83.347656 A 1.4405199 1.4405199 0 0 0 127.50586 83.363281 A 1.4404294 1.4404294 0 0 0 127.5918 83.402344 A 1.4405199 1.4405199 0 0 0 127.65625 83.429688 A 1.4404294 1.4404294 0 0 0 127.70312 83.445312 A 1.4405199 1.4405199 0 0 0 127.79492 83.472656 A 1.4404294 1.4404294 0 0 0 127.86523 83.488281 A 1.4405199 1.4405199 0 0 0 127.91992 83.498047 A 1.4404294 1.4404294 0 0 0 128.00586 83.509766 A 1.4405199 1.4405199 0 0 0 128.06445 83.515625 A 1.4404294 1.4404294 0 0 0 128.16016 83.519531 A 1.4405199 1.4405199 0 0 0 128.1875 83.519531 L 159.83984 83.519531 A 1.4404294 1.4404294 0 0 0 159.98242 83.513672 L 249.00781 80.646484 A 1.440144 1.440144 0 0 0 249.31055 80.632812 A 1.4404349 1.4404349 0 0 0 249.81055 80.488281 L 257.96289 77.769531 A 1.440144 1.440144 0 0 0 258.82031 77.308594 A 1.440144 1.440144 0 0 0 258.86719 77.255859 A 1.440144 1.440144 0 0 0 258.87305 77.25 A 1.440144 1.440144 0 0 0 259.20117 76.548828 L 270.64648 42.214844 A 1.440144 1.440144 0 0 0 270.7207 41.615234 L 270.7207 30.554688 A 1.440144 1.440144 0 0 0 270.20508 29.115234 A 1.440144 1.440144 0 0 0 270.19141 29.103516 A 1.440144 1.440144 0 0 0 270.16797 29.085938 A 1.440144 1.440144 0 0 0 270.16602 29.085938 A 1.440144 1.440144 0 0 0 269.48242 28.794922 L 269.60938 28.763672 L 269.625 28.759766 A 1.440144 1.440144 0 0 0 269.72656 28.728516 A 1.440144 1.440144 0 0 0 269.74609 28.724609 A 1.4404313 1.4404313 0 0 0 269.75391 28.720703 A 1.440144 1.440144 0 0 0 269.76953 28.716797 A 1.440144 1.440144 0 0 0 269.78711 28.710938 A 1.440144 1.440144 0 0 0 269.81641 28.699219 A 1.440144 1.440144 0 0 0 270.7207 27.115234 L 270.7207 16.083984 A 1.440144 1.440144 0 0 0 270.30859 14.8125 A 1.440144 1.440144 0 0 0 270.2207 14.730469 A 1.440144 1.440144 0 0 0 270.2168 14.726562 A 1.440144 1.440144 0 0 0 269.25781 14.378906 A 1.440144 1.440144 0 0 0 269.08008 14.394531 L 184.12109 11.660156 A 1.440144 1.440144 0 0 0 184.0918 11.660156 C 183.5695 10.467411 182.37922 9.625 181.00195 9.625 z M 181.00195 11.425781 C 181.88247 11.425781 182.57617 12.119491 182.57617 13 C 182.57617 13.880509 181.88247 14.574219 181.00195 14.574219 C 180.12144 14.574219 179.42383 13.880509 179.42383 13 C 179.42383 12.119491 180.12144 11.425781 181.00195 11.425781 z M 116.58984 14.378906 A 1.440144 1.440144 0 0 0 115.23438 16.150391 A 1.44043 1.44043 0 0 0 115.23828 16.167969 L 115.92969 19.306641 A 1.440144 1.440144 0 0 0 115.94141 19.349609 C 115.14684 19.968812 114.625 20.923052 114.625 22 C 114.625 23.853301 116.1467 25.375 118 25.375 C 119.8533 25.375 121.375 23.853301 121.375 22 C 121.375 20.404058 120.24472 19.060767 118.74805 18.716797 A 1.440144 1.440144 0 0 0 118.74219 18.6875 L 118.43164 17.28125 L 159.60742 17.28125 L 176.41797 22.884766 A 1.440144 1.440144 0 0 0 176.92969 23.033203 A 1.440144 1.440144 0 0 0 176.94531 23.035156 A 1.440144 1.440144 0 0 0 176.95117 23.035156 A 1.440144 1.440144 0 0 0 177.29492 23.039062 L 259.67773 23.427734 A 1.4404486 1.4404486 0 0 0 259.93164 23.40625 C 260.42804 24.279606 261.35513 24.880859 262.42383 24.880859 C 264.0047 24.880859 265.30469 23.580869 265.30469 22 C 265.30469 20.419132 264.0047 19.121094 262.42383 19.121094 C 261.36382 19.121094 260.44285 19.711254 259.94336 20.572266 A 1.4404486 1.4404486 0 0 0 259.69141 20.546875 L 177.35742 20.162109 L 160.32227 14.482422 A 1.44043 1.44043 0 0 0 160.29492 14.474609 A 1.440144 1.440144 0 0 0 160.23047 14.455078 A 1.44043 1.44043 0 0 0 160.18359 14.441406 A 1.440144 1.440144 0 0 0 159.87305 14.394531 A 1.440144 1.440144 0 0 0 159.71094 14.398438 L 116.86133 14.398438 A 1.440144 1.440144 0 0 0 116.58984 14.378906 z M 28 18.625 C 26.146699 18.625 24.625 20.1467 24.625 22 C 24.625 23.853301 26.146699 25.375 28 25.375 C 29.8533 25.375 31.375 23.853301 31.375 22 C 31.375 20.1467 29.8533 18.625 28 18.625 z M 37 18.625 C 35.1467 18.625 33.625 20.1467 33.625 22 C 33.625 23.853301 35.1467 25.375 37 25.375 C 38.853301 25.375 40.376953 23.853301 40.376953 22 C 40.376953 20.1467 38.853301 18.625 37 18.625 z M 46.001953 18.625 C 44.148653 18.625 42.625 20.1467 42.625 22 C 42.625 23.853301 44.148653 25.375 46.001953 25.375 C 47.855254 25.375 49.375 23.853301 49.375 22 C 49.375 20.1467 47.855254 18.625 46.001953 18.625 z M 55 18.625 C 53.146699 18.625 51.626953 20.1467 51.626953 22 C 51.626953 23.853301 53.146699 25.375 55 25.375 C 56.853301 25.375 58.375 23.853301 58.375 22 C 58.375 20.1467 56.853301 18.625 55 18.625 z M 64 18.625 C 62.146699 18.625 60.625 20.1467 60.625 22 C 60.625 23.853301 62.146699 25.375 64 25.375 C 65.8533 25.375 67.375 23.853301 67.375 22 C 67.375 20.1467 65.8533 18.625 64 18.625 z M 73 18.625 C 71.146699 18.625 69.625 20.1467 69.625 22 C 69.625 23.853301 71.146699 25.375 73 25.375 C 73.419061 25.375 73.818137 25.288446 74.189453 25.146484 A 1.440144 1.440144 0 0 0 74.214844 25.171875 L 95.326172 45.525391 A 1.440144 1.440144 0 0 0 95.326172 45.527344 A 1.440144 1.440144 0 0 0 95.933594 45.978516 A 1.440144 1.440144 0 0 0 96.603516 46.087891 L 177.85352 50.28125 A 1.4411338 1.4411338 0 0 0 177.88477 50.28125 C 178.39377 51.505203 179.60205 52.375 181.00195 52.375 C 182.71599 52.375 184.12882 51.068171 184.33398 49.40625 A 1.440144 1.440144 0 0 0 184.37305 49.394531 L 205.53711 42.337891 A 1.440144 1.440144 0 0 0 205.57031 42.326172 C 206.18649 42.968705 207.04711 43.375 208 43.375 C 209.8533 43.375 211.375 41.853301 211.375 40 C 211.375 38.146699 209.8533 36.625 208 36.625 C 206.2849 36.625 204.87011 37.932624 204.66602 39.595703 A 1.440144 1.440144 0 0 0 204.62695 39.607422 L 183.46289 46.662109 A 1.440144 1.440144 0 0 0 183.42969 46.673828 C 182.81413 46.031295 181.95484 45.625 181.00195 45.625 C 179.72717 45.625 178.621 46.351969 178.04688 47.404297 A 1.4411338 1.4411338 0 0 0 178.00391 47.402344 L 97.09375 43.230469 L 76.212891 23.097656 A 1.440144 1.440144 0 0 0 76.181641 23.070312 C 76.297011 22.731315 76.375 22.376178 76.375 22 C 76.375 20.1467 74.8533 18.625 73 18.625 z M 82 18.625 C 80.1467 18.625 78.625 20.1467 78.625 22 C 78.625 23.853301 80.1467 25.375 82 25.375 C 83.853301 25.375 85.376953 23.853301 85.376953 22 C 85.376953 20.1467 83.853301 18.625 82 18.625 z M 91.001953 18.625 C 89.148653 18.625 87.625 20.1467 87.625 22 C 87.625 23.853301 89.148653 25.375 91.001953 25.375 C 92.855254 25.375 94.375 23.853301 94.375 22 C 94.375 20.1467 92.855254 18.625 91.001953 18.625 z M 100 18.625 C 98.146699 18.625 96.626953 20.1467 96.626953 22 C 96.626953 23.853301 98.146699 25.375 100 25.375 C 101.8533 25.375 103.375 23.853301 103.375 22 C 103.375 20.1467 101.8533 18.625 100 18.625 z M 109 18.625 C 107.1467 18.625 105.625 20.1467 105.625 22 C 105.625 23.853301 107.1467 25.375 109 25.375 C 110.8533 25.375 112.375 23.853301 112.375 22 C 112.375 20.1467 110.8533 18.625 109 18.625 z M 127 18.625 C 125.1467 18.625 123.625 20.1467 123.625 22 C 123.625 23.853301 125.1467 25.375 127 25.375 C 128.8533 25.375 130.37695 23.853301 130.37695 22 C 130.37695 20.1467 128.8533 18.625 127 18.625 z M 136.00195 18.625 C 134.14865 18.625 132.625 20.1467 132.625 22 C 132.625 23.853301 134.14865 25.375 136.00195 25.375 C 137.85525 25.375 139.375 23.853301 139.375 22 C 139.375 20.1467 137.85525 18.625 136.00195 18.625 z M 145 18.625 C 143.1467 18.625 141.62695 20.1467 141.62695 22 C 141.62695 23.853301 143.1467 25.375 145 25.375 C 146.8533 25.375 148.375 23.853301 148.375 22 C 148.375 20.1467 146.8533 18.625 145 18.625 z M 150.625 18.625 L 150.625 25.375 L 157.375 25.375 L 157.375 18.625 L 156.47461 18.625 L 150.625 18.625 z M 28 20.425781 C 28.880509 20.425781 29.576172 21.119491 29.576172 22 C 29.576172 22.880509 28.880509 23.574219 28 23.574219 C 27.119491 23.574219 26.425781 22.880509 26.425781 22 C 26.425781 21.119491 27.119491 20.425781 28 20.425781 z M 37 20.425781 C 37.880509 20.425781 38.574219 21.119491 38.574219 22 C 38.574219 22.880509 37.880509 23.574219 37 23.574219 C 36.119491 23.574219 35.425781 22.880509 35.425781 22 C 35.425781 21.119491 36.119491 20.425781 37 20.425781 z M 46.001953 20.425781 C 46.882462 20.425781 47.576172 21.119491 47.576172 22 C 47.576172 22.880509 46.882462 23.574219 46.001953 23.574219 C 45.121444 23.574219 44.423828 22.880509 44.423828 22 C 44.423828 21.119491 45.121444 20.425781 46.001953 20.425781 z M 55 20.425781 C 55.880509 20.425781 56.574219 21.119491 56.574219 22 C 56.574219 22.880509 55.880509 23.574219 55 23.574219 C 54.119491 23.574219 53.425781 22.880509 53.425781 22 C 53.425781 21.119491 54.119491 20.425781 55 20.425781 z M 64 20.425781 C 64.880509 20.425781 65.576171 21.119491 65.576172 22 C 65.576172 22.880509 64.880509 23.574219 64 23.574219 C 63.119491 23.574219 62.423828 22.880509 62.423828 22 C 62.423828 21.119491 63.119491 20.425781 64 20.425781 z M 73 20.425781 C 73.880509 20.425781 74.576172 21.119491 74.576172 22 C 74.576172 22.880509 73.880509 23.574219 73 23.574219 C 72.119491 23.574219 71.425781 22.880509 71.425781 22 C 71.425781 21.119491 72.119491 20.425781 73 20.425781 z M 82 20.425781 C 82.880509 20.425781 83.574219 21.119491 83.574219 22 C 83.574219 22.880509 82.880509 23.574219 82 23.574219 C 81.119491 23.574219 80.425781 22.880509 80.425781 22 C 80.425781 21.119491 81.119491 20.425781 82 20.425781 z M 91.001953 20.425781 C 91.882462 20.425781 92.576172 21.119491 92.576172 22 C 92.576172 22.880509 91.882462 23.574219 91.001953 23.574219 C 90.121444 23.574219 89.423828 22.880509 89.423828 22 C 89.423828 21.119491 90.121444 20.425781 91.001953 20.425781 z M 100 20.425781 C 100.88051 20.425781 101.57422 21.119491 101.57422 22 C 101.57422 22.880509 100.88051 23.574219 100 23.574219 C 99.119491 23.574219 98.425781 22.880509 98.425781 22 C 98.425781 21.119491 99.119491 20.425781 100 20.425781 z M 109 20.425781 C 109.88051 20.425781 110.57617 21.119491 110.57617 22 C 110.57617 22.880509 109.88051 23.574219 109 23.574219 C 108.11949 23.574219 107.42383 22.880509 107.42383 22 C 107.42383 21.119491 108.11949 20.425781 109 20.425781 z M 118 20.425781 C 118.88051 20.425781 119.57617 21.119491 119.57617 22 C 119.57617 22.880509 118.88051 23.574219 118 23.574219 C 117.11949 23.574219 116.42578 22.880509 116.42578 22 C 116.42578 21.119491 117.11949 20.425781 118 20.425781 z M 127 20.425781 C 127.88051 20.425781 128.57421 21.119491 128.57422 22 C 128.57422 22.880509 127.88051 23.574219 127 23.574219 C 126.11949 23.574219 125.42578 22.880509 125.42578 22 C 125.42578 21.119491 126.11949 20.425781 127 20.425781 z M 136.00195 20.425781 C 136.88247 20.425781 137.57617 21.119491 137.57617 22 C 137.57617 22.880509 136.88247 23.574219 136.00195 23.574219 C 135.12144 23.574219 134.42383 22.880509 134.42383 22 C 134.42383 21.119491 135.12144 20.425781 136.00195 20.425781 z M 145 20.425781 C 145.88051 20.425781 146.57422 21.119491 146.57422 22 C 146.57422 22.880509 145.88051 23.574219 145 23.574219 C 144.11949 23.574219 143.42578 22.880509 143.42578 22 C 143.42578 21.119491 144.11949 20.425781 145 20.425781 z M 154 20.425781 C 154.88051 20.425781 155.57617 21.119491 155.57617 22 C 155.57617 22.880509 154.88051 23.574219 154 23.574219 C 153.11949 23.574219 152.42383 22.880509 152.42383 22 C 152.42383 21.119491 153.11949 20.425781 154 20.425781 z M 262.42383 20.759766 C 263.11847 20.759766 263.66406 21.305373 263.66406 22 C 263.66406 22.694627 263.11847 23.240234 262.42383 23.240234 C 261.7292 23.240234 261.18359 22.694627 261.18359 22 C 261.18359 21.305373 261.7292 20.759766 262.42383 20.759766 z M 263.66016 29.136719 C 263.63384 29.806509 263.10112 30.328125 262.42383 30.328125 C 261.79599 30.328125 261.29465 29.87987 261.20312 29.28125 L 263.66016 29.136719 z M 208 29.423828 C 208.88051 29.423828 209.57617 30.119491 209.57617 31 C 209.57617 31.880509 208.88051 32.576172 208 32.576172 C 207.11949 32.576172 206.42578 31.880509 206.42578 31 C 206.42578 30.119491 207.11949 29.423828 208 29.423828 z M 262.42383 33.292969 C 260.84297 33.292969 259.54688 34.592959 259.54688 36.173828 C 259.54688 36.878578 259.81435 37.519204 260.24023 38.021484 A 1.440144 1.440144 0 0 0 260.13477 38.253906 L 252.40625 59.476562 L 250.56836 50.296875 A 1.440144 1.440144 0 0 0 250.23242 49.470703 A 1.440144 1.440144 0 0 0 250.1543 49.382812 A 1.440144 1.440144 0 0 0 250.15234 49.380859 A 1.440144 1.440144 0 0 0 249.09961 48.941406 A 1.440144 1.440144 0 0 0 248.93359 48.953125 L 211.12305 47.666016 A 1.440144 1.440144 0 0 0 211.09375 47.666016 C 210.57329 46.469737 209.38034 45.625 208 45.625 C 206.27354 45.625 204.85112 46.950032 204.66211 48.628906 A 1.440144 1.440144 0 0 0 204.625 48.640625 L 145.18164 69.126953 A 1.440144 1.440144 0 0 0 144.54492 69.417969 A 1.440144 1.440144 0 0 0 143.97656 70.783203 L 143.81055 72.820312 A 1.4402202 1.4402202 0 0 0 143.81055 72.853516 C 142.54045 73.339754 141.62695 74.56629 141.62695 76 C 141.62695 77.853301 143.1467 79.375 145 79.375 C 146.8533 79.375 148.375 77.853301 148.375 76 C 148.375 74.758785 147.68503 73.678464 146.67773 73.091797 A 1.4402202 1.4402202 0 0 0 146.68164 73.050781 L 146.79883 71.615234 L 205.5625 51.363281 A 1.440144 1.440144 0 0 0 205.5918 51.351562 C 206.20641 51.980733 207.05902 52.375 208 52.375 C 209.29527 52.375 210.41571 51.623701 210.98047 50.542969 A 1.440144 1.440144 0 0 0 211.02539 50.544922 L 247.92969 51.798828 L 250.54883 64.882812 A 1.440144 1.440144 0 0 0 250.55859 65.013672 L 250.55859 69.380859 L 246.40234 70.21875 A 1.440144 1.440144 0 0 0 246.1543 70.287109 C 245.62469 69.684505 244.85826 69.294922 244 69.294922 C 242.41913 69.294922 241.12109 70.591007 241.12109 72.171875 C 241.12109 73.752744 242.41913 75.054688 244 75.054688 C 245.2637 75.054688 246.33456 74.216988 246.71875 73.076172 A 1.440144 1.440144 0 0 0 246.9707 73.042969 L 252.28516 71.972656 A 1.440144 1.440144 0 0 0 253.43945 70.234375 L 253.43945 65.050781 L 262.83984 39.240234 A 1.440144 1.440144 0 0 0 262.90625 39.003906 C 264.25981 38.771339 265.30469 37.589803 265.30469 36.173828 C 265.30469 34.592959 264.0047 33.292969 262.42383 33.292969 z M 262.42383 34.933594 C 263.11847 34.933594 263.66406 35.479201 263.66406 36.173828 C 263.66406 36.868456 263.11847 37.414062 262.42383 37.414062 C 261.7292 37.414062 261.18359 36.868456 261.18359 36.173828 C 261.18359 35.479201 261.7292 34.933594 262.42383 34.933594 z M 208 38.425781 C 208.88051 38.425781 209.57617 39.119491 209.57617 40 C 209.57617 40.880509 208.88051 41.574219 208 41.574219 C 207.11949 41.574219 206.42578 40.880509 206.42578 40 C 206.42578 39.119491 207.11949 38.425781 208 38.425781 z M 181.00195 47.423828 C 181.88247 47.423828 182.57617 48.119491 182.57617 49 C 182.57617 49.880509 181.88247 50.576171 181.00195 50.576172 C 180.12144 50.576172 179.42383 49.880509 179.42383 49 C 179.42383 48.119491 180.12144 47.423828 181.00195 47.423828 z M 208 47.423828 C 208.88051 47.423828 209.57617 48.119491 209.57617 49 C 209.57617 49.880509 208.88051 50.576171 208 50.576172 C 207.11949 50.576172 206.42578 49.880509 206.42578 49 C 206.42578 48.119491 207.11949 47.423828 208 47.423828 z M 244 55.119141 C 242.75856 55.119141 241.70163 55.925334 241.30078 57.035156 A 1.440144 1.440144 0 0 0 241.29492 57.035156 A 1.440144 1.440144 0 0 0 241.05078 57.060547 L 156.89258 71.988281 A 1.440144 1.440144 0 0 0 156.17969 72.228516 A 1.440574 1.440574 0 0 0 156.16211 72.240234 A 1.440144 1.440144 0 0 0 156.01758 72.351562 A 1.440574 1.440574 0 0 0 155.95117 72.410156 L 155.38281 72.900391 A 1.440144 1.440144 0 0 0 155.36133 72.919922 C 154.94315 72.732916 154.48467 72.625 154 72.625 C 152.1467 72.625 150.625 74.1467 150.625 76 C 150.625 77.853301 152.1467 79.375 154 79.375 C 155.8533 79.375 157.375 77.853301 157.375 76 C 157.375 75.687587 157.31913 75.391451 157.23828 75.103516 A 1.440144 1.440144 0 0 0 157.26758 75.078125 L 157.60352 74.789062 L 241.55273 59.896484 A 1.440144 1.440144 0 0 0 241.80078 59.832031 C 242.33026 60.465565 243.11647 60.878906 244 60.878906 C 245.58086 60.878906 246.88086 59.580867 246.88086 58 C 246.88086 56.419131 245.58086 55.119141 244 55.119141 z M 298 55.119141 C 296.41914 55.119141 295.11914 56.419131 295.11914 58 C 295.11914 59.580867 296.41914 60.878906 298 60.878906 C 299.58087 60.878906 300.87892 59.580867 300.87891 58 C 300.87891 56.419131 299.58087 55.119141 298 55.119141 z M 244 56.759766 C 244.69463 56.759766 245.24023 57.305372 245.24023 58 C 245.24023 58.694627 244.69462 59.240234 244 59.240234 C 243.30537 59.240234 242.75977 58.694627 242.75977 58 C 242.75977 57.305373 243.30537 56.759766 244 56.759766 z M 298 56.759766 C 298.69463 56.759766 299.24023 57.305372 299.24023 58 C 299.24023 58.694627 298.69463 59.240234 298 59.240234 C 297.30537 59.240234 296.75977 58.694627 296.75977 58 C 296.75977 57.305373 297.30537 56.759766 298 56.759766 z M 244 62.207031 C 242.41913 62.207031 241.12109 63.50507 241.12109 65.085938 C 241.12109 66.666806 242.41913 67.966797 244 67.966797 C 245.58086 67.966797 246.88086 66.666806 246.88086 65.085938 C 246.88086 63.50507 245.58086 62.207031 244 62.207031 z M 298 62.207031 C 296.41914 62.207031 295.11914 63.50507 295.11914 65.085938 C 295.11914 66.666806 296.41914 67.966797 298 67.966797 C 299.58087 67.966797 300.87892 66.666806 300.87891 65.085938 C 300.87891 63.50507 299.58087 62.207031 298 62.207031 z M 244 63.847656 C 244.69463 63.847656 245.24023 64.39131 245.24023 65.085938 C 245.24023 65.780565 244.69462 66.326172 244 66.326172 C 243.30537 66.326172 242.75977 65.780565 242.75977 65.085938 C 242.75977 64.39131 243.30537 63.847656 244 63.847656 z M 298 63.847656 C 298.69463 63.847656 299.24023 64.39131 299.24023 65.085938 C 299.24023 65.780565 298.69463 66.326172 298 66.326172 C 297.30537 66.326172 296.75977 65.780565 296.75977 65.085938 C 296.75977 64.39131 297.30537 63.847656 298 63.847656 z M 298 69.294922 C 296.41914 69.294922 295.11914 70.591007 295.11914 72.171875 C 295.11914 73.752744 296.41914 75.054688 298 75.054688 C 299.58087 75.054688 300.87892 73.752744 300.87891 72.171875 C 300.87891 70.591007 299.58087 69.294922 298 69.294922 z M 244 70.933594 C 244.69463 70.933594 245.24023 71.477247 245.24023 72.171875 C 245.24023 72.866502 244.69462 73.414062 244 73.414062 C 243.30537 73.414062 242.75977 72.866502 242.75977 72.171875 C 242.75977 71.477248 243.30537 70.933594 244 70.933594 z M 298 70.933594 C 298.69463 70.933594 299.24023 71.477247 299.24023 72.171875 C 299.24023 72.866502 298.69463 73.414062 298 73.414062 C 297.30537 73.414062 296.75977 72.866502 296.75977 72.171875 C 296.75977 71.477248 297.30537 70.933594 298 70.933594 z M 28 72.625 C 26.146699 72.625 24.625 74.1467 24.625 76 C 24.625 77.853301 26.146699 79.375 28 79.375 C 29.8533 79.375 31.375 77.853301 31.375 76 C 31.375 74.1467 29.8533 72.625 28 72.625 z M 37 72.625 C 35.1467 72.625 33.625 74.1467 33.625 76 C 33.625 77.853301 35.1467 79.375 37 79.375 C 38.853301 79.375 40.376953 77.853301 40.376953 76 C 40.376953 74.1467 38.853301 72.625 37 72.625 z M 46.001953 72.625 C 44.148653 72.625 42.625 74.1467 42.625 76 C 42.625 77.853301 44.148653 79.375 46.001953 79.375 C 47.855254 79.375 49.375 77.853301 49.375 76 C 49.375 74.1467 47.855254 72.625 46.001953 72.625 z M 55 72.625 C 53.146699 72.625 51.626953 74.1467 51.626953 76 C 51.626953 77.853301 53.146699 79.375 55 79.375 C 56.853301 79.375 58.375 77.853301 58.375 76 C 58.375 74.1467 56.853301 72.625 55 72.625 z M 64 72.625 C 62.146699 72.625 60.625 74.1467 60.625 76 C 60.625 77.853301 62.146699 79.375 64 79.375 C 65.8533 79.375 67.375 77.853301 67.375 76 C 67.375 74.1467 65.8533 72.625 64 72.625 z M 73 72.625 C 71.146699 72.625 69.625 74.1467 69.625 76 C 69.625 77.853301 71.146699 79.375 73 79.375 C 74.8533 79.375 76.375 77.853301 76.375 76 C 76.375 74.1467 74.8533 72.625 73 72.625 z M 82 72.625 C 80.1467 72.625 78.625 74.1467 78.625 76 C 78.625 77.853301 80.1467 79.375 82 79.375 C 83.853301 79.375 85.376953 77.853301 85.376953 76 C 85.376953 74.1467 83.853301 72.625 82 72.625 z M 91.001953 72.625 C 89.148653 72.625 87.625 74.1467 87.625 76 C 87.625 77.853301 89.148653 79.375 91.001953 79.375 C 92.855254 79.375 94.375 77.853301 94.375 76 C 94.375 74.1467 92.855254 72.625 91.001953 72.625 z M 100 72.625 C 98.146699 72.625 96.626953 74.1467 96.626953 76 C 96.626953 77.853301 98.146699 79.375 100 79.375 C 101.8533 79.375 103.375 77.853301 103.375 76 C 103.375 74.1467 101.8533 72.625 100 72.625 z M 109 72.625 C 107.1467 72.625 105.625 74.1467 105.625 76 C 105.625 77.853301 107.1467 79.375 109 79.375 C 110.8533 79.375 112.375 77.853301 112.375 76 C 112.375 74.1467 110.8533 72.625 109 72.625 z M 118 72.625 C 116.1467 72.625 114.625 74.1467 114.625 76 C 114.625 77.853301 116.1467 79.375 118 79.375 C 119.8533 79.375 121.375 77.853301 121.375 76 C 121.375 74.1467 119.8533 72.625 118 72.625 z M 136.00195 72.625 C 134.14865 72.625 132.625 74.1467 132.625 76 C 132.625 77.853301 134.14865 79.375 136.00195 79.375 C 137.85525 79.375 139.375 77.853301 139.375 76 C 139.375 74.1467 137.85525 72.625 136.00195 72.625 z M 28 74.423828 C 28.880509 74.423828 29.576172 75.119491 29.576172 76 C 29.576172 76.880509 28.880509 77.576172 28 77.576172 C 27.119491 77.576172 26.425781 76.880509 26.425781 76 C 26.425781 75.119491 27.119491 74.423828 28 74.423828 z M 37 74.423828 C 37.880509 74.423828 38.574219 75.119491 38.574219 76 C 38.574219 76.880509 37.880509 77.576172 37 77.576172 C 36.119491 77.576172 35.425781 76.880509 35.425781 76 C 35.425781 75.119491 36.119491 74.423828 37 74.423828 z M 46.001953 74.423828 C 46.882462 74.423828 47.576172 75.119491 47.576172 76 C 47.576172 76.880509 46.882462 77.576172 46.001953 77.576172 C 45.121444 77.576172 44.423828 76.880509 44.423828 76 C 44.423828 75.119491 45.121444 74.423828 46.001953 74.423828 z M 55 74.423828 C 55.880509 74.423828 56.574219 75.119491 56.574219 76 C 56.574219 76.880509 55.880509 77.576172 55 77.576172 C 54.119491 77.576172 53.425781 76.880509 53.425781 76 C 53.425781 75.119491 54.119491 74.423828 55 74.423828 z M 64 74.423828 C 64.880509 74.423828 65.576172 75.119491 65.576172 76 C 65.576172 76.880509 64.880509 77.576172 64 77.576172 C 63.119491 77.576172 62.423828 76.880509 62.423828 76 C 62.423828 75.119491 63.119491 74.423828 64 74.423828 z M 73 74.423828 C 73.880509 74.423828 74.576172 75.119491 74.576172 76 C 74.576172 76.880509 73.880509 77.576172 73 77.576172 C 72.119491 77.576172 71.425781 76.880509 71.425781 76 C 71.425781 75.119491 72.119491 74.423828 73 74.423828 z M 82 74.423828 C 82.880509 74.423828 83.574219 75.119491 83.574219 76 C 83.574219 76.880509 82.880509 77.576172 82 77.576172 C 81.119491 77.576172 80.425781 76.880509 80.425781 76 C 80.425781 75.119491 81.119491 74.423828 82 74.423828 z M 91.001953 74.423828 C 91.882462 74.423828 92.576172 75.119491 92.576172 76 C 92.576172 76.880509 91.882462 77.576172 91.001953 77.576172 C 90.121444 77.576172 89.423828 76.880509 89.423828 76 C 89.423828 75.119491 90.121444 74.423828 91.001953 74.423828 z M 100 74.423828 C 100.88051 74.423828 101.57422 75.119491 101.57422 76 C 101.57422 76.880509 100.88051 77.576172 100 77.576172 C 99.119491 77.576172 98.425781 76.880509 98.425781 76 C 98.425781 75.119491 99.119491 74.423828 100 74.423828 z M 109 74.423828 C 109.88051 74.423828 110.57617 75.119491 110.57617 76 C 110.57617 76.880509 109.88051 77.576172 109 77.576172 C 108.11949 77.576172 107.42383 76.880509 107.42383 76 C 107.42383 75.119491 108.11949 74.423828 109 74.423828 z M 118 74.423828 C 118.88051 74.423828 119.57617 75.119491 119.57617 76 C 119.57617 76.880509 118.88051 77.576172 118 77.576172 C 117.11949 77.576172 116.42578 76.880509 116.42578 76 C 116.42578 75.119491 117.11949 74.423828 118 74.423828 z M 127 74.423828 C 127.88051 74.423828 128.57422 75.119491 128.57422 76 C 128.57422 76.880509 127.88051 77.576172 127 77.576172 C 126.11949 77.576172 125.42578 76.880509 125.42578 76 C 125.42578 75.119491 126.11949 74.423828 127 74.423828 z M 136.00195 74.423828 C 136.88247 74.423828 137.57617 75.119491 137.57617 76 C 137.57617 76.880509 136.88247 77.576172 136.00195 77.576172 C 135.12144 77.576172 134.42383 76.880509 134.42383 76 C 134.42383 75.119491 135.12144 74.423828 136.00195 74.423828 z M 145 74.423828 C 145.88051 74.423828 146.57422 75.119491 146.57422 76 C 146.57422 76.880509 145.88051 77.576172 145 77.576172 C 144.11949 77.576172 143.42578 76.880509 143.42578 76 C 143.42578 75.119491 144.11949 74.423828 145 74.423828 z M 154 74.423828 C 154.88051 74.423828 155.57617 75.119491 155.57617 76 C 155.57617 76.880509 154.88051 77.576172 154 77.576172 C 153.11949 77.576172 152.42383 76.880509 152.42383 76 C 152.42383 75.119491 153.11949 74.423828 154 74.423828 z "
     transform="matrix(0.8,0,0,0.8,-1.8310547e-4,0)"
     id="boardoutline" />
</svg>
