<?xml version="1.0" encoding="UTF-8" standalone="no"?>
<svg
   xmlns:dc="http://purl.org/dc/elements/1.1/"
   xmlns:cc="http://creativecommons.org/ns#"
   xmlns:rdf="http://www.w3.org/1999/02/22-rdf-syntax-ns#"
   xmlns:svg="http://www.w3.org/2000/svg"
   xmlns="http://www.w3.org/2000/svg"
   id="svg4136"
   width="3.97638in"
   y="0in"
   x="0in"
   version="1.2"
   viewBox="0 0 286.299 72"
   height="1in">
  <metadata
     id="metadata4338">
    <rdf:RDF>
      <cc:Work
         rdf:about="">
        <dc:format>image/svg+xml</dc:format>
        <dc:type
           rdf:resource="http://purl.org/dc/dcmitype/StillImage" />
        <dc:title></dc:title>
      </cc:Work>
    </rdf:RDF>
  </metadata>
  <defs
     id="defs4336" />
  <path
     id="boardoutline"
     transform="matrix(0.8,0,0,0.8,-1.8310547e-4,0)"
     d="M 0.046875 0.046875 L 0.046875 0.359375 L 0.046875 89.953125 L 357.82812 89.953125 L 357.82812 0.046875 L 0.046875 0.046875 z M 0.671875 0.671875 L 357.20312 0.671875 L 357.20312 89.328125 L 0.671875 89.328125 L 0.671875 0.671875 z M 170.67578 4.3144531 A 2.160216 2.160216 0 0 0 170.42383 4.3300781 A 2.1606446 2.1606446 0 0 0 170.35938 4.3398438 A 2.160216 2.160216 0 0 0 170.3125 4.3457031 L 114.50195 12.931641 A 2.160216 2.160216 0 0 0 114.49219 12.931641 A 2.160216 2.160216 0 0 0 112.55664 16.103516 L 112.56445 16.119141 A 2.1603003 2.1603003 0 0 0 112.56836 16.125 L 114.44922 19.802734 A 2.160216 2.160216 0 0 0 114.99219 20.503906 C 114.76395 20.957347 114.625 21.461111 114.625 22 C 114.625 23.853301 116.1467 25.375 118 25.375 C 119.8533 25.375 121.375 23.853301 121.375 22 C 121.375 20.332308 120.13999 18.945012 118.54297 18.681641 A 2.160216 2.160216 0 0 0 118.29297 17.833984 L 117.76562 16.800781 L 170.80469 8.640625 L 196.3125 8.640625 L 258.77734 23.359375 A 2.160216 2.160216 0 0 0 259.90234 23.351562 C 260.39022 24.254518 261.33311 24.880859 262.42383 24.880859 C 264.0047 24.880859 265.30469 23.580869 265.30469 22 C 265.30469 20.419132 264.0047 19.121094 262.42383 19.121094 C 261.80568 19.121094 261.23455 19.324008 260.76367 19.660156 A 2.160216 2.160216 0 0 0 259.76562 19.15625 L 197.05664 4.3769531 A 2.160216 2.160216 0 0 0 196.86523 4.3398438 A 2.1606446 2.1606446 0 0 0 196.86328 4.3398438 A 2.160216 2.160216 0 0 0 196.62891 4.3144531 A 2.160216 2.160216 0 0 0 196.37695 4.3183594 L 170.7793 4.3183594 A 2.160216 2.160216 0 0 0 170.67578 4.3144531 z M 181.00195 9.625 C 179.14865 9.6249999 177.625 11.146699 177.625 13 C 177.625 14.8533 179.14865 16.375 181.00195 16.375 C 181.40656 16.375 181.78985 16.290801 182.15039 16.158203 A 2.160216 2.160216 0 0 0 182.77539 16.779297 L 203.82617 30.8125 A 2.160216 2.160216 0 0 0 204.64062 31.152344 C 204.72291 32.934483 206.19878 34.375 208 34.375 C 209.14839 34.375 210.16703 33.789408 210.77734 32.904297 A 2.160216 2.160216 0 0 0 211.64844 33.033203 L 259.26367 31.359375 A 2.1606454 2.1606454 0 0 0 260.34766 31.066406 C 260.87317 31.618612 261.60814 31.96875 262.42383 31.96875 C 262.86389 31.96875 263.2778 31.859168 263.65234 31.679688 A 2.160216 2.160216 0 0 0 264.5293 32.363281 L 267.83984 33.8125 L 267.83984 66.306641 L 260.17773 77.796875 L 129.48438 82.011719 L 129.34766 79.455078 A 2.160216 2.160216 0 0 0 129.12891 78.591797 C 129.88233 77.971259 130.37695 77.044 130.37695 76 C 130.37695 74.1467 128.8533 72.625 127 72.625 C 125.1467 72.625 123.625 74.1467 123.625 76 C 123.625 77.174111 124.23766 78.213317 125.15625 78.818359 A 2.160216 2.160216 0 0 0 125.03516 79.685547 L 125.2832 84.355469 A 2.1605451 2.1605451 0 0 0 125.28906 84.423828 A 2.160216 2.160216 0 0 0 127.85742 86.386719 L 261.12305 82.089844 A 2.160216 2.160216 0 0 0 261.91992 82.021484 A 2.1606502 2.1606502 0 0 0 263.46484 80.654297 L 271.79688 68.160156 A 2.160216 2.160216 0 0 0 271.82812 68.109375 A 2.16065 2.16065 0 0 0 271.86719 68.044922 A 2.160216 2.160216 0 0 0 272.16016 66.673828 L 272.16016 32.400391 A 2.1613629 2.1613629 0 0 0 272.15625 32.273438 A 2.160216 2.160216 0 0 0 270.55859 30.285156 L 266.25977 28.40625 A 2.160216 2.160216 0 0 0 265.42188 28.212891 A 2.160216 2.160216 0 0 0 265.1582 28.224609 C 264.78645 27.062698 263.70266 26.207031 262.42383 26.207031 C 261.53584 26.207031 260.7482 26.62395 260.21875 27.263672 A 2.1606454 2.1606454 0 0 0 259.25977 27.039062 A 2.160216 2.160216 0 0 0 259.11133 27.041016 L 211.49609 28.716797 A 2.160216 2.160216 0 0 0 210.625 28.912109 C 210.00501 28.135316 209.06278 27.625 208 27.625 C 207.59389 27.625 207.20951 27.708073 206.84766 27.841797 A 2.160216 2.160216 0 0 0 206.22266 27.21875 L 185.17383 13.185547 A 2.160216 2.160216 0 0 0 184.35938 12.845703 C 184.27599 11.064547 182.80236 9.625 181.00195 9.625 z M 181.00195 11.425781 C 181.88247 11.425781 182.57617 12.119491 182.57617 13 C 182.57617 13.112251 182.56448 13.221029 182.54297 13.326172 A 2.160216 2.160216 0 0 0 181.89648 14.300781 C 181.64349 14.473557 181.33672 14.574219 181.00195 14.574219 C 180.12144 14.574219 179.42383 13.880509 179.42383 13 C 179.42383 12.119491 180.12144 11.425781 181.00195 11.425781 z M 28 18.625 C 26.146699 18.625 24.625 20.1467 24.625 22 C 24.625 23.853301 26.146699 25.375 28 25.375 C 29.8533 25.375 31.375 23.853301 31.375 22 C 31.375 20.1467 29.8533 18.625 28 18.625 z M 37 18.625 C 35.1467 18.625 33.625 20.1467 33.625 22 C 33.625 23.853301 35.1467 25.375 37 25.375 C 38.853301 25.375 40.376953 23.853301 40.376953 22 C 40.376953 20.1467 38.853301 18.625 37 18.625 z M 46.001953 18.625 C 44.148653 18.625 42.625 20.1467 42.625 22 C 42.625 23.853301 44.148653 25.375 46.001953 25.375 C 47.855254 25.375 49.375 23.853301 49.375 22 C 49.375 20.1467 47.855254 18.625 46.001953 18.625 z M 55 18.625 C 53.146699 18.625 51.626953 20.1467 51.626953 22 C 51.626953 23.853301 53.146699 25.375 55 25.375 C 56.853301 25.375 58.375 23.853301 58.375 22 C 58.375 20.1467 56.853301 18.625 55 18.625 z M 64 18.625 C 62.146699 18.625 60.625 20.1467 60.625 22 C 60.625 23.853301 62.146699 25.375 64 25.375 C 65.8533 25.375 67.375 23.853301 67.375 22 C 67.375 20.1467 65.8533 18.625 64 18.625 z M 73 18.625 C 71.146699 18.625 69.625 20.1467 69.625 22 C 69.625 23.853301 71.146699 25.375 73 25.375 C 73.059419 25.375 73.115132 25.360514 73.173828 25.357422 A 2.160216 2.160216 0 0 0 73.589844 26.134766 L 86.746094 42.234375 A 2.160216 2.160216 0 0 0 87.347656 42.835938 A 2.160216 2.160216 0 0 0 87.376953 42.855469 A 2.160216 2.160216 0 0 0 87.490234 42.921875 A 2.160216 2.160216 0 0 0 88.650391 43.214844 L 177.25391 50.84375 A 2.160216 2.160216 0 0 0 178.13281 50.746094 C 178.72857 51.716109 179.78931 52.375 181.00195 52.375 C 182.49622 52.375 183.75815 51.378465 184.19727 50.023438 A 2.160216 2.160216 0 0 0 185.07422 49.919922 L 205.29297 43.179688 A 2.160216 2.160216 0 0 0 206.05859 42.746094 C 206.60996 43.137695 207.27774 43.375 208 43.375 C 209.8533 43.375 211.375 41.853301 211.375 40 C 211.375 38.146699 209.8533 36.625 208 36.625 C 206.5074 36.625 205.24384 37.618616 204.80273 38.970703 A 2.160216 2.160216 0 0 0 204.71289 38.962891 A 2.160216 2.160216 0 0 0 203.92578 39.082031 L 183.70898 45.820312 A 2.160216 2.160216 0 0 0 182.94727 46.255859 C 182.39531 45.86184 181.72666 45.625 181.00195 45.625 C 179.99546 45.625 179.09527 46.082338 178.47461 46.789062 A 2.160216 2.160216 0 0 0 177.625 46.541016 L 89.65625 38.966797 L 76.933594 23.400391 A 2.160216 2.160216 0 0 0 76.255859 22.839844 C 76.326541 22.569209 76.375 22.291632 76.375 22 C 76.375 20.1467 74.8533 18.625 73 18.625 z M 82 18.625 C 80.1467 18.625 78.625 20.1467 78.625 22 C 78.625 23.853301 80.1467 25.375 82 25.375 C 83.853301 25.375 85.376953 23.853301 85.376953 22 C 85.376953 20.1467 83.853301 18.625 82 18.625 z M 91.001953 18.625 C 89.148653 18.625 87.625 20.1467 87.625 22 C 87.625 23.853301 89.148653 25.375 91.001953 25.375 C 92.855254 25.375 94.375 23.853301 94.375 22 C 94.375 20.1467 92.855254 18.625 91.001953 18.625 z M 100 18.625 C 98.146699 18.625 96.626953 20.1467 96.626953 22 C 96.626953 23.853301 98.146699 25.375 100 25.375 C 101.8533 25.375 103.375 23.853301 103.375 22 C 103.375 20.1467 101.8533 18.625 100 18.625 z M 109 18.625 C 107.1467 18.625 105.625 20.1467 105.625 22 C 105.625 23.853301 107.1467 25.375 109 25.375 C 110.8533 25.375 112.375 23.853301 112.375 22 C 112.375 20.1467 110.8533 18.625 109 18.625 z M 127 18.625 C 125.1467 18.625 123.625 20.1467 123.625 22 C 123.625 23.853301 125.1467 25.375 127 25.375 C 128.8533 25.375 130.37695 23.853301 130.37695 22 C 130.37695 20.1467 128.8533 18.625 127 18.625 z M 136.00195 18.625 C 134.14865 18.625 132.625 20.1467 132.625 22 C 132.625 23.853301 134.14865 25.375 136.00195 25.375 C 137.85525 25.375 139.375 23.853301 139.375 22 C 139.375 20.1467 137.85525 18.625 136.00195 18.625 z M 145 18.625 C 143.1467 18.625 141.62695 20.1467 141.62695 22 C 141.62695 23.853301 143.1467 25.375 145 25.375 C 146.8533 25.375 148.375 23.853301 148.375 22 C 148.375 20.1467 146.8533 18.625 145 18.625 z M 150.625 18.625 L 150.625 25.375 L 157.375 25.375 L 157.375 18.625 L 156.47461 18.625 L 150.625 18.625 z M 28 20.425781 C 28.880509 20.425781 29.576172 21.119491 29.576172 22 C 29.576172 22.880509 28.880509 23.574219 28 23.574219 C 27.119491 23.574219 26.425781 22.880509 26.425781 22 C 26.425781 21.119491 27.119491 20.425781 28 20.425781 z M 37 20.425781 C 37.880509 20.425781 38.574219 21.119491 38.574219 22 C 38.574219 22.880509 37.880509 23.574219 37 23.574219 C 36.119491 23.574219 35.425781 22.880509 35.425781 22 C 35.425781 21.119491 36.119491 20.425781 37 20.425781 z M 46.001953 20.425781 C 46.882462 20.425781 47.576172 21.119491 47.576172 22 C 47.576172 22.880509 46.882462 23.574219 46.001953 23.574219 C 45.121444 23.574219 44.423828 22.880509 44.423828 22 C 44.423828 21.119491 45.121444 20.425781 46.001953 20.425781 z M 55 20.425781 C 55.880509 20.425781 56.574219 21.119491 56.574219 22 C 56.574219 22.880509 55.880509 23.574219 55 23.574219 C 54.119491 23.574219 53.425781 22.880509 53.425781 22 C 53.425781 21.119491 54.119491 20.425781 55 20.425781 z M 64 20.425781 C 64.880509 20.425781 65.576171 21.119491 65.576172 22 C 65.576172 22.880509 64.880509 23.574219 64 23.574219 C 63.119491 23.574219 62.423828 22.880509 62.423828 22 C 62.423828 21.119491 63.119491 20.425781 64 20.425781 z M 73 20.425781 C 73.880509 20.425781 74.576172 21.119491 74.576172 22 C 74.576172 22.282747 74.497443 22.542025 74.371094 22.769531 A 2.160216 2.160216 0 0 0 73.488281 23.492188 C 73.334405 23.541295 73.171845 23.574219 73 23.574219 C 72.119491 23.574219 71.425781 22.880509 71.425781 22 C 71.425781 21.119491 72.119491 20.425781 73 20.425781 z M 82 20.425781 C 82.880509 20.425781 83.574219 21.119491 83.574219 22 C 83.574219 22.880509 82.880509 23.574219 82 23.574219 C 81.119491 23.574219 80.425781 22.880509 80.425781 22 C 80.425781 21.119491 81.119491 20.425781 82 20.425781 z M 91.001953 20.425781 C 91.882462 20.425781 92.576172 21.119491 92.576172 22 C 92.576172 22.880509 91.882462 23.574219 91.001953 23.574219 C 90.121444 23.574219 89.423828 22.880509 89.423828 22 C 89.423828 21.119491 90.121444 20.425781 91.001953 20.425781 z M 100 20.425781 C 100.88051 20.425781 101.57422 21.119491 101.57422 22 C 101.57422 22.880509 100.88051 23.574219 100 23.574219 C 99.119491 23.574219 98.425781 22.880509 98.425781 22 C 98.425781 21.119491 99.119491 20.425781 100 20.425781 z M 109 20.425781 C 109.88051 20.425781 110.57617 21.119491 110.57617 22 C 110.57617 22.880509 109.88051 23.574219 109 23.574219 C 108.11949 23.574219 107.42383 22.880509 107.42383 22 C 107.42383 21.119491 108.11949 20.425781 109 20.425781 z M 118 20.425781 C 118.88051 20.425781 119.57617 21.119491 119.57617 22 C 119.57617 22.880509 118.88051 23.574219 118 23.574219 C 117.11949 23.574219 116.42578 22.880509 116.42578 22 C 116.42578 21.60536 116.56956 21.252577 116.80273 20.978516 A 2.160216 2.160216 0 0 0 117.85938 20.439453 C 117.90649 20.435356 117.95168 20.425781 118 20.425781 z M 127 20.425781 C 127.88051 20.425781 128.57421 21.119491 128.57422 22 C 128.57422 22.880509 127.88051 23.574219 127 23.574219 C 126.11949 23.574219 125.42578 22.880509 125.42578 22 C 125.42578 21.119491 126.11949 20.425781 127 20.425781 z M 136.00195 20.425781 C 136.88247 20.425781 137.57617 21.119491 137.57617 22 C 137.57617 22.880509 136.88247 23.574219 136.00195 23.574219 C 135.12144 23.574219 134.42383 22.880509 134.42383 22 C 134.42383 21.119491 135.12144 20.425781 136.00195 20.425781 z M 145 20.425781 C 145.88051 20.425781 146.57422 21.119491 146.57422 22 C 146.57422 22.880509 145.88051 23.574219 145 23.574219 C 144.11949 23.574219 143.42578 22.880509 143.42578 22 C 143.42578 21.119491 144.11949 20.425781 145 20.425781 z M 154 20.425781 C 154.88051 20.425781 155.57617 21.119491 155.57617 22 C 155.57617 22.880509 154.88051 23.574219 154 23.574219 C 153.11949 23.574219 152.42383 22.880509 152.42383 22 C 152.42383 21.119491 153.11949 20.425781 154 20.425781 z M 262.42383 20.759766 C 263.11847 20.759766 263.66406 21.305373 263.66406 22 C 263.66406 22.694627 263.11847 23.240234 262.42383 23.240234 C 261.83484 23.240234 261.35754 22.845514 261.22461 22.302734 A 2.160216 2.160216 0 0 0 261.48633 21.205078 C 261.71224 20.937148 262.03863 20.759766 262.42383 20.759766 z M 262.42383 27.847656 C 263.107 27.847656 263.64254 28.374521 263.66016 29.052734 A 2.160216 2.160216 0 0 0 263.24023 30.009766 C 263.02253 30.20135 262.7427 30.328125 262.42383 30.328125 C 261.95629 30.328125 261.57291 30.068739 261.36133 29.695312 A 2.1606454 2.1606454 0 0 0 261.31836 28.542969 C 261.51798 28.130912 261.92778 27.847656 262.42383 27.847656 z M 208 29.423828 C 208.64109 29.423828 209.18021 29.795256 209.42773 30.335938 A 2.160216 2.160216 0 0 0 209.4707 31.560547 C 209.24832 32.15761 208.68209 32.576172 208 32.576172 C 207.11949 32.576172 206.42578 31.880509 206.42578 31 C 206.42578 30.883375 206.43971 30.771091 206.46289 30.662109 A 2.160216 2.160216 0 0 0 207.09766 29.705078 C 207.35216 29.528462 207.66167 29.423828 208 29.423828 z M 262.42383 33.292969 C 261.21677 33.292969 260.18109 34.053104 259.75586 35.115234 L 258.55469 35.732422 A 2.1603195 2.1603195 0 0 0 259.19922 39.787109 L 259.19922 54.283203 L 249.59766 47.882812 A 2.160216 2.160216 0 0 0 249.59375 47.880859 A 2.1609548 2.1609548 0 0 0 249.48438 47.8125 A 2.160216 2.160216 0 0 0 249.35742 47.742188 A 2.1609548 2.1609548 0 0 0 249.35352 47.740234 A 2.160216 2.160216 0 0 0 248.37891 47.501953 A 2.160216 2.160216 0 0 0 248.15625 47.515625 L 211.61133 46.898438 A 2.1609548 2.1609548 0 0 0 210.75195 47.064453 C 210.13917 46.197939 209.13399 45.625 208 45.625 C 206.48782 45.625 205.21164 46.643996 204.78711 48.023438 A 2.160216 2.160216 0 0 0 204.69336 48.017578 A 2.160216 2.160216 0 0 0 203.91211 48.148438 L 144.34375 69.121094 A 2.160216 2.160216 0 0 0 142.7832 70.294922 A 2.160216 2.160216 0 0 0 142.72852 70.40625 A 2.160216 2.160216 0 0 0 142.7207 70.423828 A 2.160216 2.160216 0 0 0 142.58203 71.710938 L 142.63281 72.560547 A 2.1608589 2.1608589 0 0 0 142.86719 73.414062 C 142.11781 74.03531 141.62695 74.958724 141.62695 76 C 141.62695 77.853301 143.1467 79.375 145 79.375 C 146.8533 79.375 148.375 77.853301 148.375 76 C 148.375 74.815708 147.75028 73.773288 146.81836 73.169922 A 2.1608589 2.1608589 0 0 0 146.91797 72.796875 L 205.34375 52.224609 A 2.160216 2.160216 0 0 0 206.09961 51.78125 C 206.64247 52.154408 207.29705 52.375 208 52.375 C 209.09248 52.375 210.05976 51.837617 210.67773 51.023438 A 2.1609548 2.1609548 0 0 0 211.53906 51.220703 L 247.73242 51.830078 L 257.70117 58.476562 L 245.18555 68.464844 A 2.160216 2.160216 0 0 0 244.52148 69.347656 C 244.35131 69.315912 244.17884 69.294922 244 69.294922 C 242.41913 69.294922 241.12109 70.591007 241.12109 72.171875 C 241.12109 73.752744 242.41913 75.054688 244 75.054688 C 245.54017 75.054688 246.80459 73.816441 246.86914 72.291016 A 2.160216 2.160216 0 0 0 247.88086 71.839844 L 262.44727 60.216797 A 2.160216 2.160216 0 0 0 263.54102 58.386719 A 2.160216 2.160216 0 0 0 263.54297 58.277344 A 2.160216 2.160216 0 0 0 263.54297 58.271484 A 2.160216 2.160216 0 0 0 263.52148 58.009766 L 263.52148 38.832031 C 264.56389 38.397477 265.30469 37.366616 265.30469 36.173828 C 265.30469 34.592959 264.0047 33.292969 262.42383 33.292969 z M 262.65234 34.957031 C 263.23459 35.061549 263.66406 35.557366 263.66406 36.173828 C 263.66406 36.360415 263.61988 36.534011 263.54883 36.691406 A 2.160216 2.160216 0 0 0 262.65234 34.957031 z M 208 38.425781 C 208.88051 38.425781 209.57617 39.119491 209.57617 40 C 209.57617 40.880509 208.88051 41.574219 208 41.574219 C 207.50599 41.574219 207.07608 41.351241 206.78906 41.003906 A 2.160216 2.160216 0 0 0 206.43359 39.929688 C 206.47032 39.0837 207.14368 38.425781 208 38.425781 z M 181.00195 47.423828 C 181.50154 47.423828 181.93579 47.651674 182.22266 48.005859 A 2.160216 2.160216 0 0 0 182.57031 49.054688 C 182.54151 49.908471 181.86366 50.576171 181.00195 50.576172 C 180.27418 50.576172 179.67724 50.097843 179.49023 49.435547 A 2.160216 2.160216 0 0 0 179.58594 48.310547 C 179.83923 47.784066 180.37068 47.423828 181.00195 47.423828 z M 208 47.423828 C 208.70446 47.423828 209.28243 47.871391 209.48828 48.5 A 2.1609548 2.1609548 0 0 0 209.47266 49.552734 C 209.2518 50.153532 208.68428 50.576171 208 50.576172 C 207.51614 50.576172 207.0937 50.361035 206.80664 50.025391 A 2.160216 2.160216 0 0 0 206.42969 48.953125 C 206.45428 48.095412 207.13548 47.423828 208 47.423828 z M 244 55.119141 C 242.93782 55.119141 242.01436 55.713507 241.51562 56.578125 A 2.160216 2.160216 0 0 0 240.76172 56.472656 A 2.160216 2.160216 0 0 0 240.39844 56.519531 L 157.08203 73.181641 A 2.160216 2.160216 0 0 0 156.25977 73.515625 C 155.65878 72.96817 154.86961 72.625 154 72.625 C 152.1467 72.625 150.625 74.1467 150.625 76 C 150.625 77.853301 152.1467 79.375 154 79.375 C 155.34401 79.375 156.50512 78.570212 157.04688 77.423828 A 2.160216 2.160216 0 0 0 157.92969 77.417969 L 241.24609 60.753906 A 2.160216 2.160216 0 0 0 242.25391 60.269531 C 242.7405 60.645688 243.34228 60.878906 244 60.878906 C 245.58086 60.878906 246.88086 59.580867 246.88086 58 C 246.88086 56.419131 245.58086 55.119141 244 55.119141 z M 298 55.119141 C 296.41914 55.119141 295.11914 56.419131 295.11914 58 C 295.11914 59.580867 296.41914 60.878906 298 60.878906 C 299.58087 60.878906 300.87892 59.580867 300.87891 58 C 300.87891 56.419131 299.58087 55.119141 298 55.119141 z M 244 56.759766 C 244.69463 56.759766 245.24023 57.305372 245.24023 58 C 245.24023 58.694627 244.69462 59.240234 244 59.240234 C 243.57829 59.240234 243.22898 59.026342 243.00586 58.712891 A 2.160216 2.160216 0 0 0 242.79688 57.701172 C 242.92834 57.156207 243.40949 56.759766 244 56.759766 z M 298 56.759766 C 298.69463 56.759766 299.24023 57.305372 299.24023 58 C 299.24023 58.694627 298.69463 59.240234 298 59.240234 C 297.30537 59.240234 296.75977 58.694627 296.75977 58 C 296.75977 57.305373 297.30537 56.759766 298 56.759766 z M 244 62.207031 C 242.41913 62.207031 241.12109 63.50507 241.12109 65.085938 C 241.12109 66.666806 242.41913 67.966797 244 67.966797 C 245.58086 67.966797 246.88086 66.666806 246.88086 65.085938 C 246.88086 63.50507 245.58086 62.207031 244 62.207031 z M 298 62.207031 C 296.41914 62.207031 295.11914 63.50507 295.11914 65.085938 C 295.11914 66.666806 296.41914 67.966797 298 67.966797 C 299.58087 67.966797 300.87892 66.666806 300.87891 65.085938 C 300.87891 63.50507 299.58087 62.207031 298 62.207031 z M 244 63.847656 C 244.69463 63.847656 245.24023 64.39131 245.24023 65.085938 C 245.24023 65.780565 244.69462 66.326172 244 66.326172 C 243.30537 66.326172 242.75977 65.780565 242.75977 65.085938 C 242.75977 64.39131 243.30537 63.847656 244 63.847656 z M 298 63.847656 C 298.69463 63.847656 299.24023 64.39131 299.24023 65.085938 C 299.24023 65.780565 298.69463 66.326172 298 66.326172 C 297.30537 66.326172 296.75977 65.780565 296.75977 65.085938 C 296.75977 64.39131 297.30537 63.847656 298 63.847656 z M 298 69.294922 C 296.41914 69.294922 295.11914 70.591007 295.11914 72.171875 C 295.11914 73.752744 296.41914 75.054688 298 75.054688 C 299.58087 75.054688 300.87892 73.752744 300.87891 72.171875 C 300.87891 70.591007 299.58087 69.294922 298 69.294922 z M 244 70.933594 C 244.21244 70.933594 244.401 70.997165 244.57422 71.087891 A 2.160216 2.160216 0 0 0 245.19922 71.869141 C 245.22306 71.966491 245.24023 72.066237 245.24023 72.171875 C 245.24023 72.866502 244.69462 73.414062 244 73.414062 C 243.30537 73.414062 242.75977 72.866502 242.75977 72.171875 C 242.75977 71.477248 243.30537 70.933594 244 70.933594 z M 298 70.933594 C 298.69463 70.933594 299.24023 71.477247 299.24023 72.171875 C 299.24023 72.866502 298.69463 73.414062 298 73.414062 C 297.30537 73.414062 296.75977 72.866502 296.75977 72.171875 C 296.75977 71.477248 297.30537 70.933594 298 70.933594 z M 28 72.625 C 26.146699 72.625 24.625 74.1467 24.625 76 C 24.625 77.853301 26.146699 79.375 28 79.375 C 29.8533 79.375 31.375 77.853301 31.375 76 C 31.375 74.1467 29.8533 72.625 28 72.625 z M 37 72.625 C 35.1467 72.625 33.625 74.1467 33.625 76 C 33.625 77.853301 35.1467 79.375 37 79.375 C 38.853301 79.375 40.376953 77.853301 40.376953 76 C 40.376953 74.1467 38.853301 72.625 37 72.625 z M 46.001953 72.625 C 44.148653 72.625 42.625 74.1467 42.625 76 C 42.625 77.853301 44.148653 79.375 46.001953 79.375 C 47.855254 79.375 49.375 77.853301 49.375 76 C 49.375 74.1467 47.855254 72.625 46.001953 72.625 z M 55 72.625 C 53.146699 72.625 51.626953 74.1467 51.626953 76 C 51.626953 77.853301 53.146699 79.375 55 79.375 C 56.853301 79.375 58.375 77.853301 58.375 76 C 58.375 74.1467 56.853301 72.625 55 72.625 z M 64 72.625 C 62.146699 72.625 60.625 74.1467 60.625 76 C 60.625 77.853301 62.146699 79.375 64 79.375 C 65.8533 79.375 67.375 77.853301 67.375 76 C 67.375 74.1467 65.8533 72.625 64 72.625 z M 73 72.625 C 71.146699 72.625 69.625 74.1467 69.625 76 C 69.625 77.853301 71.146699 79.375 73 79.375 C 74.8533 79.375 76.375 77.853301 76.375 76 C 76.375 74.1467 74.8533 72.625 73 72.625 z M 82 72.625 C 80.1467 72.625 78.625 74.1467 78.625 76 C 78.625 77.853301 80.1467 79.375 82 79.375 C 83.853301 79.375 85.376953 77.853301 85.376953 76 C 85.376953 74.1467 83.853301 72.625 82 72.625 z M 91.001953 72.625 C 89.148653 72.625 87.625 74.1467 87.625 76 C 87.625 77.853301 89.148653 79.375 91.001953 79.375 C 92.855254 79.375 94.375 77.853301 94.375 76 C 94.375 74.1467 92.855254 72.625 91.001953 72.625 z M 100 72.625 C 98.146699 72.625 96.626953 74.1467 96.626953 76 C 96.626953 77.853301 98.146699 79.375 100 79.375 C 101.8533 79.375 103.375 77.853301 103.375 76 C 103.375 74.1467 101.8533 72.625 100 72.625 z M 109 72.625 C 107.1467 72.625 105.625 74.1467 105.625 76 C 105.625 77.853301 107.1467 79.375 109 79.375 C 110.8533 79.375 112.375 77.853301 112.375 76 C 112.375 74.1467 110.8533 72.625 109 72.625 z M 118 72.625 C 116.1467 72.625 114.625 74.1467 114.625 76 C 114.625 77.853301 116.1467 79.375 118 79.375 C 119.8533 79.375 121.375 77.853301 121.375 76 C 121.375 74.1467 119.8533 72.625 118 72.625 z M 136.00195 72.625 C 134.14865 72.625 132.625 74.1467 132.625 76 C 132.625 77.853301 134.14865 79.375 136.00195 79.375 C 137.85525 79.375 139.375 77.853301 139.375 76 C 139.375 74.1467 137.85525 72.625 136.00195 72.625 z M 28 74.423828 C 28.880509 74.423828 29.576172 75.119491 29.576172 76 C 29.576172 76.880509 28.880509 77.576172 28 77.576172 C 27.119491 77.576172 26.425781 76.880509 26.425781 76 C 26.425781 75.119491 27.119491 74.423828 28 74.423828 z M 37 74.423828 C 37.880509 74.423828 38.574219 75.119491 38.574219 76 C 38.574219 76.880509 37.880509 77.576172 37 77.576172 C 36.119491 77.576172 35.425781 76.880509 35.425781 76 C 35.425781 75.119491 36.119491 74.423828 37 74.423828 z M 46.001953 74.423828 C 46.882462 74.423828 47.576172 75.119491 47.576172 76 C 47.576172 76.880509 46.882462 77.576172 46.001953 77.576172 C 45.121444 77.576172 44.423828 76.880509 44.423828 76 C 44.423828 75.119491 45.121444 74.423828 46.001953 74.423828 z M 55 74.423828 C 55.880509 74.423828 56.574219 75.119491 56.574219 76 C 56.574219 76.880509 55.880509 77.576172 55 77.576172 C 54.119491 77.576172 53.425781 76.880509 53.425781 76 C 53.425781 75.119491 54.119491 74.423828 55 74.423828 z M 64 74.423828 C 64.880509 74.423828 65.576172 75.119491 65.576172 76 C 65.576172 76.880509 64.880509 77.576172 64 77.576172 C 63.119491 77.576172 62.423828 76.880509 62.423828 76 C 62.423828 75.119491 63.119491 74.423828 64 74.423828 z M 73 74.423828 C 73.880509 74.423828 74.576172 75.119491 74.576172 76 C 74.576172 76.880509 73.880509 77.576172 73 77.576172 C 72.119491 77.576172 71.425781 76.880509 71.425781 76 C 71.425781 75.119491 72.119491 74.423828 73 74.423828 z M 82 74.423828 C 82.880509 74.423828 83.574219 75.119491 83.574219 76 C 83.574219 76.880509 82.880509 77.576172 82 77.576172 C 81.119491 77.576172 80.425781 76.880509 80.425781 76 C 80.425781 75.119491 81.119491 74.423828 82 74.423828 z M 91.001953 74.423828 C 91.882462 74.423828 92.576172 75.119491 92.576172 76 C 92.576172 76.880509 91.882462 77.576172 91.001953 77.576172 C 90.121444 77.576172 89.423828 76.880509 89.423828 76 C 89.423828 75.119491 90.121444 74.423828 91.001953 74.423828 z M 100 74.423828 C 100.88051 74.423828 101.57422 75.119491 101.57422 76 C 101.57422 76.880509 100.88051 77.576172 100 77.576172 C 99.119491 77.576172 98.425781 76.880509 98.425781 76 C 98.425781 75.119491 99.119491 74.423828 100 74.423828 z M 109 74.423828 C 109.88051 74.423828 110.57617 75.119491 110.57617 76 C 110.57617 76.880509 109.88051 77.576172 109 77.576172 C 108.11949 77.576172 107.42383 76.880509 107.42383 76 C 107.42383 75.119491 108.11949 74.423828 109 74.423828 z M 118 74.423828 C 118.88051 74.423828 119.57617 75.119491 119.57617 76 C 119.57617 76.880509 118.88051 77.576172 118 77.576172 C 117.11949 77.576172 116.42578 76.880509 116.42578 76 C 116.42578 75.119491 117.11949 74.423828 118 74.423828 z M 127 74.423828 C 127.88051 74.423828 128.57422 75.119491 128.57422 76 C 128.57422 76.6442 128.20052 77.185791 127.65625 77.431641 A 2.160216 2.160216 0 0 0 127.25781 77.380859 A 2.160216 2.160216 0 0 0 126.50977 77.492188 C 125.87695 77.288685 125.42578 76.707428 125.42578 76 C 125.42578 75.119491 126.11949 74.423828 127 74.423828 z M 136.00195 74.423828 C 136.88247 74.423828 137.57617 75.119491 137.57617 76 C 137.57617 76.880509 136.88247 77.576172 136.00195 77.576172 C 135.12144 77.576172 134.42383 76.880509 134.42383 76 C 134.42383 75.119491 135.12144 74.423828 136.00195 74.423828 z M 154 74.423828 C 154.55602 74.423828 155.03615 74.702446 155.31641 75.128906 A 2.160216 2.160216 0 0 0 155.54883 76.289062 C 155.41588 77.028117 154.78181 77.576172 154 77.576172 C 153.11949 77.576172 152.42383 76.880509 152.42383 76 C 152.42383 75.119491 153.11949 74.423828 154 74.423828 z M 145.4375 74.490234 C 146.09828 74.677825 146.57422 75.272888 146.57422 76 C 146.57422 76.880509 145.88051 77.576172 145 77.576172 C 144.11949 77.576172 143.42578 76.880509 143.42578 76 C 143.42578 75.342778 143.81268 74.78989 144.375 74.550781 A 2.1608589 2.1608589 0 0 0 145.4375 74.490234 z "
     style="color:#000000;font-style:normal;font-variant:normal;font-weight:normal;font-stretch:normal;font-size:medium;line-height:normal;font-family:sans-serif;text-indent:0;text-align:start;text-decoration:none;text-decoration-line:none;text-decoration-style:solid;text-decoration-color:#000000;letter-spacing:normal;word-spacing:normal;text-transform:none;direction:ltr;block-progression:tb;writing-mode:lr-tb;baseline-shift:baseline;text-anchor:start;white-space:normal;clip-rule:nonzero;display:inline;overflow:visible;visibility:visible;opacity:1;isolation:auto;mix-blend-mode:normal;color-interpolation:sRGB;color-interpolation-filters:linearRGB;solid-color:#000000;solid-opacity:1;fill:#000000;fill-opacity:1;fill-rule:nonzero;stroke:none;stroke-width:0.5;stroke-linecap:butt;stroke-linejoin:miter;stroke-miterlimit:4;stroke-dasharray:none;stroke-dashoffset:0;stroke-opacity:1;color-rendering:auto;image-rendering:auto;shape-rendering:auto;text-rendering:auto;enable-background:accumulate" />
</svg>
