<?xml version='1.0' encoding='UTF-8' standalone='no'?>
<!-- Created with Fritzing (http://www.fritzing.org/) -->
<svg xmlns="http://www.w3.org/2000/svg" height="1in" viewBox="0 0 286.299 72"  baseProfile="tiny" xmlns:svg="http://www.w3.org/2000/svg" version="1.2" x="0in" y="0in" width="3.97638in">
 <g partID="57411">
  <g id="silkscreen0">
   <rect height="71.424" x="0.288" y="0.288" stroke="black" width="285.724" fill="none" stroke-width="0.576"/>
  </g>
 </g>
 <g partID="57410">
  <g id="board">
   <rect fill-opacity="0.5" height="71.424" x="0.288" y="0.288" id="boardoutline" stroke="black" width="285.724" fill="none" stroke-width="0.5"/>
  </g>
 </g>
 <g partID="57411">
  <g id="silkscreen0">
   <rect height="71.424" x="0.288" y="0.288" stroke="black" width="285.724" fill="none" stroke-width="0.576"/>
  </g>
 </g>
 <g partID="57450">
  <g transform="translate(141.704,41.9)">
   <g transform="matrix(0,-1,1,0,0,0)">
    <g id="copper0">
     <g id="copper1">
      <!-- <rect width="55" x="10" y="15.5" fill="none" height="55" stroke="rgb(255, 191, 0)" stroke-width="20" />  -->
      <circle cx="2.7" cy="3.096" r="1.98" stroke="white" id="connector0pin" fill="white" stroke-width="2.16"/>
      <circle cx="31.5" cy="3.096" r="1.98" stroke="white" id="connector1pin" fill="white" stroke-width="2.16"/>
     </g>
    </g>
   </g>
  </g>
 </g>
 <g partID="129740">
  <g transform="translate(127.52,13.28)">
   <g transform="matrix(0,1,-1,0,0,0)">
    <g id="copper0">
     <rect height="3.96" x="2.34" y="2.34" id="square" stroke="white" width="3.96" fill="white" stroke-width="2.16"/>
     <circle cx="4.32" cy="4.32" r="1.98" id="connector0pin" stroke="white" fill="white" stroke-width="2.16"/>
     <circle cx="47.52" cy="4.32" r="1.98" id="connector29pin" stroke="white" fill="white" stroke-width="2.16"/>
     <circle cx="4.32" cy="11.52" r="1.98" id="connector1pin" stroke="white" fill="white" stroke-width="2.16"/>
     <circle cx="47.52" cy="11.52" r="1.98" id="connector28pin" stroke="white" fill="white" stroke-width="2.16"/>
     <circle cx="4.32" cy="18.72" r="1.98" id="connector2pin" stroke="white" fill="white" stroke-width="2.16"/>
     <circle cx="47.52" cy="18.72" r="1.98" id="connector27pin" stroke="white" fill="white" stroke-width="2.16"/>
     <circle cx="4.32" cy="25.92" r="1.98" id="connector3pin" stroke="white" fill="white" stroke-width="2.16"/>
     <circle cx="47.52" cy="25.92" r="1.98" id="connector26pin" stroke="white" fill="white" stroke-width="2.16"/>
     <circle cx="4.32" cy="33.12" r="1.98" id="connector4pin" stroke="white" fill="white" stroke-width="2.16"/>
     <circle cx="47.52" cy="33.12" r="1.98" id="connector25pin" stroke="white" fill="white" stroke-width="2.16"/>
     <circle cx="4.32" cy="40.32" r="1.98" id="connector5pin" stroke="white" fill="white" stroke-width="2.16"/>
     <circle cx="47.52" cy="40.32" r="1.98" id="connector24pin" stroke="white" fill="white" stroke-width="2.16"/>
     <circle cx="4.32" cy="47.52" r="1.98" id="connector6pin" stroke="white" fill="white" stroke-width="2.16"/>
     <circle cx="47.52" cy="47.52" r="1.98" id="connector23pin" stroke="white" fill="white" stroke-width="2.16"/>
     <circle cx="4.32" cy="54.72" r="1.98" id="connector7pin" stroke="white" fill="white" stroke-width="2.16"/>
     <circle cx="47.52" cy="54.72" r="1.98" id="connector22pin" stroke="white" fill="white" stroke-width="2.16"/>
     <circle cx="4.32" cy="61.92" r="1.98" id="connector8pin" stroke="white" fill="white" stroke-width="2.16"/>
     <circle cx="47.52" cy="61.92" r="1.98" id="connector21pin" stroke="white" fill="white" stroke-width="2.16"/>
     <circle cx="4.32" cy="69.12" r="1.98" id="connector9pin" stroke="white" fill="white" stroke-width="2.16"/>
     <circle cx="47.52" cy="69.12" r="1.98" id="connector20pin" stroke="white" fill="white" stroke-width="2.16"/>
     <circle cx="4.32" cy="76.32" r="1.98" id="connector10pin" stroke="white" fill="white" stroke-width="2.16"/>
     <circle cx="47.52" cy="76.32" r="1.98" id="connector19pin" stroke="white" fill="white" stroke-width="2.16"/>
     <circle cx="4.32" cy="83.52" r="1.98" id="connector11pin" stroke="white" fill="white" stroke-width="2.16"/>
     <circle cx="47.52" cy="83.52" r="1.98" id="connector18pin" stroke="white" fill="white" stroke-width="2.16"/>
     <circle cx="4.32" cy="90.72" r="1.98" id="connector12pin" stroke="white" fill="white" stroke-width="2.16"/>
     <circle cx="47.52" cy="90.72" r="1.98" id="connector17pin" stroke="white" fill="white" stroke-width="2.16"/>
     <circle cx="4.32" cy="97.92" r="1.98" id="connector13pin" stroke="white" fill="white" stroke-width="2.16"/>
     <circle cx="47.52" cy="97.92" r="1.98" id="connector16pin" stroke="white" fill="white" stroke-width="2.16"/>
     <circle cx="4.32" cy="105.12" r="1.98" id="connector14pin" stroke="white" fill="white" stroke-width="2.16"/>
     <circle cx="47.52" cy="105.12" r="1.98" id="connector15pin" stroke="white" fill="white" stroke-width="2.16"/>
    </g>
   </g>
  </g>
 </g>
 <g partID="132460">
  <g transform="translate(191.227,34.8959)">
   <g transform="matrix(0,-1,1,0,0,0)">
    <g id="copper0">
     <circle cx="5.9573" cy="18.7132" connectorname="1" r="1.64806" id="connector0pad" stroke="white" stroke-width="2.03188" fill="white"/>
     <circle cx="11.6266" cy="18.7132" connectorname="2" r="1.64806" id="connector1pad" stroke="white" stroke-width="2.03188" fill="white"/>
     <circle cx="17.2959" cy="18.7132" connectorname="3" r="1.64806" id="connector2pad" stroke="white" stroke-width="2.03188" fill="white"/>
    </g>
   </g>
  </g>
 </g>
 <g partID="132790">
  <g transform="translate(213.913,40.4427)">
   <g transform="matrix(0,1,-1,0,0,0)">
    <g id="copper0">
     <circle cx="5.9573" cy="18.7132" connectorname="1" r="1.64806" id="connector0pad" stroke="white" stroke-width="2.03188" fill="white"/>
     <circle cx="11.6266" cy="18.7132" connectorname="2" r="1.64806" id="connector1pad" stroke="white" stroke-width="2.03188" fill="white"/>
     <circle cx="17.2959" cy="18.7132" connectorname="3" r="1.64806" id="connector2pad" stroke="white" stroke-width="2.03188" fill="white"/>
    </g>
   </g>
  </g>
 </g>
 <g partID="133520">
  <g transform="translate(158.192,42.8)">
   <g transform="matrix(0,-1,1,0,0,0)">
    <g id="copper0">
     <circle cx="3.6" cy="8.208" r="1.98" id="connector0pin" stroke="white" stroke-width="2.16" fill="white"/>
     <circle cx="10.8" cy="8.208" r="1.98" id="connector1pin" stroke="white" fill="white" stroke-width="2.16"/>
     <circle cx="18" cy="8.208" r="1.98" id="connector2pin" stroke="white" stroke-width="2.16" fill="white"/>
    </g>
   </g>
  </g>
 </g>
 <g partID="136650">
  <g transform="translate(257.113,40.4427)">
   <g transform="matrix(0,1,-1,0,0,0)">
    <g id="copper0">
     <circle cx="5.9573" cy="18.7132" connectorname="1" r="1.64806" id="connector0pad" stroke="white" stroke-width="2.03188" fill="white"/>
     <circle cx="11.6266" cy="18.7132" connectorname="2" r="1.64806" id="connector1pad" stroke="white" stroke-width="2.03188" fill="white"/>
     <circle cx="17.2959" cy="18.7132" connectorname="3" r="1.64806" id="connector2pad" stroke="white" stroke-width="2.03188" fill="white"/>
    </g>
   </g>
  </g>
 </g>
</svg>
